# xmcd
#
# Track frame offsets:
#	150
#	12497
#	30501
#	50387
#	71165
#	88418
#	102672
#	114247
#	128358
#	146362
#	159280
#	178806
#	196412
#
# Disc length: 2885 seconds
#
# Revision: 0
# Processed by: cddbd v1.5.2PL0 Copyright (c) Steve Scherf et al.
# Submitted via: EasyCDDAExtractor 10.0.1.1
#
DISCID=ae0b430d
DTITLE=Renaud - Rouge sang [CD 2)
DYEAR=2006
DGENRE=Chanson française
TTITLE0=Pas de dimanches
TTITLE1=Adieu l'enfance
TTITLE2=Jusqu'à la fin du monde
TTITLE3=Sentimentale mon cul
TTITLE4=Elsa
TTITLE5=Rien à te mettre
TTITLE6=A la teloche
TTITLE7=A la Close
TTITLE8=Leonard's song
TTITLE9=Malone
TTITLE10=En la selva
TTITLE11=Je m'appelle Galilée
TTITLE12=Pondichery
EXTD=
EXTT0=
EXTT1=
EXTT2=
EXTT3=
EXTT4=
EXTT5=
EXTT6=
EXTT7=
EXTT8=
EXTT9=
EXTT10=
EXTT11=
EXTT12=
PLAYORDER=
